<?xml version="1.0" encoding="iso-8859-1"?>
<!-- Generator: Adobe Illustrator 18.1.1, SVG Export Plug-In . SVG Version: 6.00 Build 0)  -->
<svg version="1.1" id="Capa_1" xmlns="http://www.w3.org/2000/svg" xmlns:xlink="http://www.w3.org/1999/xlink" x="0px" y="0px"
	 viewBox="0 0 23.456 23.456" style="enable-background:new 0 0 23.456 23.456;" xml:space="preserve">
<g>
	<g>
		<path style="fill:#030104;" d="M7.417,15.735c-3.22-3.196-4.994-7.025-4.94-10.04L0.078,4.936c-0.506,3.8,1.466,8.721,5.461,12.69
			c2.837,2.814,6.144,4.605,9.183,5.217l-0.158-2.673C12.207,19.476,9.661,17.964,7.417,15.735z"/>
		<path style="fill:#030104;" d="M17.526,5.552c2.023,2.009,3.476,4.266,4.26,6.416l1.67,0.565
			c-0.819-2.684-2.512-5.494-4.978-7.941c-1.733-1.72-3.642-3.058-5.557-3.979l0.168,1.628C14.605,3.052,16.124,4.162,17.526,5.552z
			"/>
		<path style="fill:#030104;" d="M16.47,6.516c1.469,1.459,2.461,3.107,2.915,4.635l1.063,0.36c-0.463-1.869-1.601-3.87-3.348-5.608
			c-1.214-1.207-2.566-2.127-3.917-2.738l0.107,1.029C14.376,4.741,15.47,5.52,16.47,6.516z"/>
		<path style="fill:#030104;" d="M9.757,12.993c-1.921-1.907-3.038-4.146-3.183-6L4.945,6.478c-0.128,2.367,1.137,5.3,3.569,7.719
			c1.814,1.807,3.934,2.979,5.899,3.421l-0.101-1.74C12.8,15.394,11.183,14.411,9.757,12.993z"/>
		<path style="fill:#030104;" d="M11.19,11.291c-1.12-1.123-1.788-2.385-1.925-3.447L8.162,7.493
			c-0.013,1.359,0.745,3.021,2.177,4.46c1.174,1.178,2.576,1.979,3.878,2.317l-0.061-1.046
			C13.159,12.872,12.105,12.209,11.19,11.291z"/>
		<path style="fill:#030104;" d="M15.772,7.717c0.906,0.908,1.509,1.903,1.784,2.814l0.687,0.233
			c-0.274-1.107-0.965-2.306-2.038-3.382c-0.853-0.857-1.822-1.511-2.788-1.936l0.064,0.621C14.266,6.445,15.061,7.004,15.772,7.717
			z"/>
		<path style="fill:#030104;" d="M13.663,9.503l2.814,0.955c-0.251-0.714-0.775-1.524-1.513-2.26
			c-0.541-0.537-1.117-0.958-1.674-1.243l0.265,2.536l-2.613-0.826c0.268,0.678,0.765,1.427,1.456,2.111
			c0.453,0.452,0.935,0.822,1.406,1.097L13.663,9.503z"/>
	</g>
</g>
<g>
</g>
<g>
</g>
<g>
</g>
<g>
</g>
<g>
</g>
<g>
</g>
<g>
</g>
<g>
</g>
<g>
</g>
<g>
</g>
<g>
</g>
<g>
</g>
<g>
</g>
<g>
</g>
<g>
</g>
</svg>
